<svg width="68" height="67" viewBox="0 0 68 67" fill="none" xmlns="http://www.w3.org/2000/svg">
<path d="M37.1404 2.09379C32.7142 2.09707 28.3506 3.13899 24.4004 5.13577C20.4503 7.13256 17.0238 10.0285 14.3967 13.5906C11.7695 17.1528 10.0149 21.2817 9.27407 25.6454C8.5332 30.0091 8.82672 34.4858 10.131 38.7154L4.10886 35.7044C3.86084 35.5827 3.57481 35.5641 3.31309 35.6524C3.05136 35.7408 2.83517 35.929 2.71162 36.1761C2.58807 36.4232 2.56718 36.709 2.6535 36.9714C2.73981 37.2338 2.92634 37.4515 3.17243 37.577L11.5474 41.7645C11.744 41.8627 11.9665 41.8966 12.1834 41.8614C12.4003 41.8262 12.6006 41.7236 12.7559 41.5682L19.0372 35.2869C19.1344 35.1897 19.2115 35.0743 19.2641 34.9473C19.3167 34.8203 19.3438 34.6841 19.3438 34.5467C19.3438 34.4092 19.3167 34.273 19.2641 34.146C19.2115 34.019 19.1344 33.9036 19.0372 33.8064C18.94 33.7092 18.8245 33.6321 18.6975 33.5794C18.5705 33.5268 18.4344 33.4998 18.2969 33.4998C18.1594 33.4998 18.0233 33.5268 17.8963 33.5794C17.7692 33.6321 17.6538 33.7092 17.5566 33.8064L12.4125 38.9505C11.4523 36.1882 10.9642 33.2839 10.9685 30.3594C10.9685 15.9282 22.7092 4.18754 37.1404 4.18754C51.5716 4.18754 63.3123 15.9282 63.3123 30.3594C63.3123 44.7906 51.5716 56.5313 37.1404 56.5313C36.8627 56.5313 36.5965 56.6416 36.4001 56.8379C36.2038 57.0342 36.0935 57.3005 36.0935 57.5782C36.0935 57.8558 36.2038 58.1221 36.4001 58.3184C36.5965 58.5147 36.8627 58.625 37.1404 58.625C42.7308 58.625 48.1957 56.9673 52.8439 53.8614C57.4922 50.7556 61.115 46.3411 63.2544 41.1762C65.3938 36.0113 65.9535 30.3281 64.8629 24.8451C63.7722 19.3621 61.0802 14.3256 57.1272 10.3726C54.5086 7.73968 51.3938 5.65227 47.963 4.23121C44.5323 2.81015 40.8538 2.08366 37.1404 2.09379Z" fill="#FD3D57"/>
<path d="M23.611 35.9944C23.6903 36.1857 23.8244 36.3492 23.9966 36.4642C24.1688 36.5792 24.3711 36.6406 24.5782 36.6406H35.0469C35.3246 36.6406 35.5909 36.5303 35.7872 36.334C35.9835 36.1377 36.0938 35.8714 36.0938 35.5938C36.0938 35.3161 35.9835 35.0498 35.7872 34.8535C35.5909 34.6572 35.3246 34.5469 35.0469 34.5469H27.1055L34.7403 26.9121C34.8376 26.8149 34.9147 26.6995 34.9673 26.5725C35.0199 26.4455 35.0469 26.3094 35.0469 26.1719C35.0469 23.8629 32.6988 21.9844 29.8126 21.9844C26.9263 21.9844 24.5782 23.8629 24.5782 26.1719C24.5782 26.4495 24.6885 26.7158 24.8848 26.9121C25.0811 27.1085 25.3474 27.2188 25.6251 27.2188C25.9027 27.2188 26.169 27.1085 26.3653 26.9121C26.5616 26.7158 26.6719 26.4495 26.6719 26.1719C26.6719 25.0369 28.1101 24.0781 29.8126 24.0781C31.3211 24.0781 32.6224 24.8312 32.899 25.7924L23.8379 34.8533C23.6915 34.9998 23.5917 35.1864 23.5514 35.3895C23.511 35.5926 23.5317 35.8031 23.611 35.9944Z" fill="#FD3D57"/>
<path d="M55.4654 18.21C55.3117 17.9787 55.0725 17.818 54.8003 17.7631C54.5281 17.7082 54.2453 17.7636 54.014 17.9173C53.7827 18.0709 53.622 18.3102 53.5671 18.5823C53.5122 18.8545 53.5676 19.1374 53.7213 19.3687C54.0869 19.9189 54.4287 20.494 54.7371 21.077C54.8685 21.3195 55.0903 21.5003 55.3543 21.5802C55.6182 21.6601 55.9031 21.6327 56.1469 21.5038C56.3907 21.3749 56.5738 21.1549 56.6564 20.8918C56.739 20.6287 56.7144 20.3436 56.588 20.0985C56.2471 19.4536 55.8695 18.8184 55.4654 18.21Z" fill="#FD3D57"/>
<path d="M58.2404 24.1655C58.203 24.0321 58.1395 23.9075 58.0536 23.7988C57.9677 23.6902 57.8611 23.5997 57.74 23.5325C57.6188 23.4654 57.4856 23.4229 57.3479 23.4076C57.2102 23.3924 57.0709 23.4046 56.938 23.4435C56.805 23.4825 56.6812 23.5474 56.5735 23.6346C56.4659 23.7218 56.3766 23.8294 56.3109 23.9514C56.2452 24.0733 56.2043 24.2071 56.1906 24.3449C56.177 24.4827 56.1908 24.6219 56.2313 24.7544C56.4176 25.3903 56.5718 26.0352 56.6935 26.6866C56.7444 26.9596 56.9017 27.2011 57.1307 27.3581C57.3597 27.5151 57.6417 27.5747 57.9146 27.5238C58.1876 27.4729 58.4291 27.3156 58.5861 27.0866C58.7431 26.8576 58.8027 26.5756 58.7518 26.3027C58.6171 25.5822 58.4465 24.8689 58.2404 24.1655Z" fill="#FD3D57"/>
<path d="M57.4582 35.5453C57.193 35.4635 56.9062 35.4904 56.6608 35.62C56.4155 35.7496 56.2316 35.9714 56.1496 36.2365C55.9539 36.8698 55.7265 37.4929 55.4684 38.1035C55.4137 38.2303 55.3846 38.3667 55.3829 38.5047C55.3812 38.6428 55.4067 38.7799 55.4582 38.908C55.5097 39.0362 55.5859 39.1529 55.6827 39.2514C55.7794 39.35 55.8947 39.4284 56.0219 39.4822C56.1491 39.5359 56.2857 39.564 56.4238 39.5648C56.5619 39.5656 56.6987 39.5391 56.8265 39.4867C56.9543 39.4344 57.0705 39.3573 57.1683 39.2598C57.2662 39.1624 57.3438 39.0466 57.3967 38.919C57.6822 38.2439 57.9336 37.5549 58.1501 36.8546C58.1906 36.7232 58.2049 36.5851 58.1921 36.4481C58.1793 36.3112 58.1396 36.1782 58.0754 36.0566C58.0111 35.935 57.9236 35.8273 57.8177 35.7396C57.7118 35.6518 57.5896 35.5858 57.4582 35.5453Z" fill="#FD3D57"/>
<path d="M51.0582 13.3405C50.8431 13.1669 50.5681 13.0855 50.2932 13.1139C50.0183 13.1423 49.7658 13.2783 49.5908 13.4922C49.4157 13.706 49.3324 13.9804 49.3588 14.2555C49.3853 14.5306 49.5195 14.7841 49.7321 14.9606C50.2439 15.3794 50.7397 15.8286 51.2057 16.2954C51.3029 16.3926 51.4183 16.4698 51.5453 16.5224C51.6723 16.5751 51.8084 16.6022 51.9459 16.6022C52.0834 16.6023 52.2196 16.5752 52.3466 16.5227C52.4737 16.4701 52.5891 16.393 52.6863 16.2958C52.7836 16.1986 52.8607 16.0832 52.9134 15.9562C52.966 15.8292 52.9932 15.693 52.9932 15.5555C52.9932 15.418 52.9662 15.2819 52.9136 15.1548C52.861 15.0278 52.7839 14.9124 52.6867 14.8151C52.1717 14.2995 51.6239 13.8034 51.0582 13.3405Z" fill="#FD3D57"/>
<path d="M52.4843 44.6441C52.6966 44.823 52.9713 44.9102 53.2479 44.8865C53.5245 44.8629 53.7804 44.7303 53.9593 44.518C54.4295 43.96 54.877 43.3718 55.2895 42.77C55.4465 42.5409 55.506 42.2589 55.455 41.9859C55.404 41.713 55.2467 41.4714 55.0176 41.3145C54.9042 41.2368 54.7766 41.1821 54.6421 41.1537C54.5075 41.1253 54.3687 41.1237 54.2336 41.149C53.9606 41.1999 53.7191 41.3573 53.5622 41.5863C53.1888 42.1312 52.7837 42.6637 52.3582 43.1697C52.1796 43.382 52.0925 43.6565 52.1161 43.933C52.1397 44.2095 52.2722 44.4652 52.4843 44.6441Z" fill="#FD3D57"/>
<path d="M59.0168 32.5518C59.0886 31.8278 59.1248 31.09 59.1248 30.3594C59.1248 30.0817 59.0145 29.8154 58.8182 29.6191C58.6219 29.4228 58.3556 29.3125 58.0779 29.3125C57.8003 29.3125 57.534 29.4228 57.3377 29.6191C57.1413 29.8154 57.0311 30.0817 57.0311 30.3594C57.0311 31.0215 56.9982 31.6898 56.9333 32.3458C56.906 32.6221 56.9896 32.8979 57.1656 33.1126C57.3417 33.3273 57.5958 33.4633 57.8721 33.4906C57.907 33.494 57.9418 33.4958 57.9768 33.4958C58.2363 33.4954 58.4864 33.3986 58.6786 33.2241C58.8708 33.0497 58.9913 32.8101 59.0168 32.5518Z" fill="#FD3D57"/>
<path d="M32.6886 10.943C32.7634 10.9429 32.838 10.9349 32.9111 10.9191C33.5589 10.779 34.2132 10.6714 34.8718 10.5968C35.0084 10.5813 35.1406 10.5391 35.2609 10.4725C35.3812 10.4059 35.4872 10.3163 35.5729 10.2088C35.6586 10.1012 35.7222 9.97789 35.7602 9.84575C35.7982 9.71361 35.8098 9.57528 35.7943 9.43866C35.7789 9.30205 35.7366 9.16981 35.6701 9.04951C35.6035 8.92921 35.5139 8.8232 35.4063 8.73753C35.2988 8.65187 35.1754 8.58822 35.0433 8.55023C34.9112 8.51223 34.7728 8.50064 34.6362 8.51611C33.9102 8.59842 33.1808 8.71828 32.4683 8.87257C32.2156 8.92694 31.9919 9.07289 31.8404 9.2823C31.6888 9.49171 31.6201 9.74978 31.6475 10.0068C31.6748 10.2639 31.7963 10.5017 31.9886 10.6745C32.1808 10.8473 32.4301 10.9429 32.6886 10.9429V10.943Z" fill="#FD3D57"/>
<path d="M19.5401 43.5344C19.9781 44.1184 20.4502 44.6867 20.9434 45.2239C21.1319 45.4256 21.3924 45.5447 21.6683 45.5552C21.9441 45.5658 22.213 45.467 22.4163 45.2803C22.6197 45.0935 22.741 44.8341 22.754 44.5583C22.767 44.2826 22.6705 44.0129 22.4856 43.8079C22.0391 43.3216 21.6116 42.807 21.2149 42.2782C21.0484 42.056 20.8004 41.9092 20.5255 41.8699C20.2506 41.8307 19.9714 41.9022 19.7493 42.0688C19.5272 42.2354 19.3804 42.4834 19.3411 42.7582C19.3018 43.0331 19.3734 43.3123 19.5399 43.5344H19.5401Z" fill="#FD3D57"/>
<path d="M17.1517 24.0226C17.0187 23.9877 16.8802 23.9794 16.744 23.9981C16.6077 24.0167 16.4765 24.0621 16.3579 24.1314C16.2392 24.2008 16.1353 24.2929 16.0522 24.4024C15.9691 24.5119 15.9083 24.6367 15.8735 24.7697C15.6878 25.4787 15.5377 26.1966 15.4238 26.9206C15.3807 27.1949 15.4484 27.4751 15.6118 27.6996C15.7753 27.924 16.0213 28.0743 16.2956 28.1174C16.5698 28.1605 16.85 28.0929 17.0745 27.9294C17.2989 27.7659 17.4492 27.52 17.4923 27.2457C17.5953 26.591 17.7309 25.9419 17.8988 25.3009C17.9337 25.1679 17.942 25.0293 17.9233 24.8931C17.9047 24.7569 17.8594 24.6257 17.79 24.507C17.7206 24.3883 17.6285 24.2844 17.519 24.2013C17.4095 24.1182 17.2847 24.0575 17.1517 24.0226Z" fill="#FD3D57"/>
<path d="M46.4238 12.7632C46.5454 12.8285 46.6788 12.8692 46.8162 12.8828C46.9536 12.8964 47.0923 12.8827 47.2244 12.8425C47.3565 12.8023 47.4793 12.7363 47.5858 12.6485C47.6923 12.5606 47.7804 12.4525 47.8449 12.3304C47.9094 12.2084 47.9492 12.0747 47.9619 11.9372C47.9746 11.7997 47.9599 11.6611 47.9188 11.5293C47.8777 11.3975 47.8109 11.2751 47.7223 11.1692C47.6337 11.0633 47.525 10.976 47.4025 10.9123C46.7563 10.5706 46.0862 10.258 45.4106 9.98384C45.2832 9.93211 45.1469 9.90597 45.0094 9.90692C44.8719 9.90786 44.736 9.93588 44.6093 9.98936C44.4827 10.0428 44.3678 10.1208 44.2713 10.2186C44.1747 10.3165 44.0984 10.4324 44.0467 10.5598C43.9949 10.6872 43.9688 10.8235 43.9698 10.961C43.9707 11.0985 43.9987 11.2344 44.0522 11.361C44.1057 11.4877 44.1836 11.6026 44.2815 11.6991C44.3793 11.7957 44.4953 11.872 44.6227 11.9237C45.2367 12.1733 45.8378 12.4535 46.4238 12.7632Z" fill="#FD3D57"/>
<path d="M19.2864 21.582C19.5794 20.9873 19.9019 20.4077 20.2528 19.8452C20.3965 19.6098 20.4415 19.3272 20.3779 19.0588C20.3144 18.7904 20.1475 18.5579 19.9136 18.4118C19.6796 18.2658 19.3974 18.2179 19.1284 18.2788C18.8594 18.3396 18.6252 18.5041 18.4768 18.7366C18.0904 19.3556 17.7309 20.0017 17.4081 20.6567C17.3473 20.78 17.3114 20.9141 17.3025 21.0513C17.2936 21.1885 17.3117 21.3261 17.356 21.4563C17.4002 21.5865 17.4697 21.7067 17.5604 21.81C17.6511 21.9133 17.7613 21.9978 17.8846 22.0585C18.0079 22.1193 18.142 22.1552 18.2792 22.1641C18.4164 22.173 18.554 22.1548 18.6842 22.1106C18.8144 22.0663 18.9346 21.9969 19.0379 21.9062C19.1412 21.8155 19.2257 21.7053 19.2864 21.582Z" fill="#FD3D57"/>
<path d="M26.8453 13.1711C27.0256 13.1712 27.2029 13.1243 27.3598 13.0353C27.9356 12.71 28.5327 12.4103 29.1362 12.1447C29.2621 12.0893 29.3758 12.0097 29.4708 11.9104C29.5659 11.811 29.6405 11.694 29.6903 11.5658C29.7401 11.4377 29.7642 11.301 29.7612 11.1636C29.7582 11.0261 29.7281 10.8906 29.6728 10.7648C29.6174 10.6389 29.5378 10.5252 29.4384 10.4302C29.3391 10.3351 29.2221 10.2605 29.0939 10.2107C28.9658 10.1609 28.8291 10.1368 28.6916 10.1398C28.5542 10.1428 28.4187 10.1729 28.2928 10.2282C27.6221 10.5235 26.9666 10.8522 26.3288 11.2131C26.1274 11.327 25.9695 11.5044 25.8796 11.7175C25.7897 11.9307 25.773 12.1676 25.832 12.3913C25.891 12.615 26.0224 12.8128 26.2057 12.9539C26.3891 13.095 26.6139 13.1714 26.8453 13.1711Z" fill="#FD3D57"/>
<path d="M49.5097 45.9372C48.9925 46.3484 48.4489 46.7381 47.8938 47.0958C47.7775 47.1699 47.677 47.2663 47.5981 47.3793C47.5192 47.4924 47.4634 47.62 47.4339 47.7547C47.4044 47.8894 47.4018 48.0286 47.4263 48.1643C47.4507 48.3 47.5018 48.4295 47.5764 48.5454C47.6511 48.6614 47.7479 48.7614 47.8614 48.8398C47.9748 48.9182 48.1026 48.9734 48.2375 49.0023C48.3723 49.0311 48.5115 49.033 48.6471 49.0079C48.7827 48.9828 48.912 48.9312 49.0276 48.856C49.6408 48.4608 50.2414 48.0302 50.8126 47.5762C51.03 47.4034 51.1698 47.1513 51.2013 46.8755C51.2328 46.5996 51.1534 46.3225 50.9806 46.1052C50.8079 45.8878 50.5558 45.748 50.28 45.7165C50.0041 45.685 49.727 45.7644 49.5097 45.9372Z" fill="#FD3D57"/>
<path d="M44.3579 48.9006C43.7404 49.141 43.1111 49.3502 42.4725 49.5275C42.34 49.5643 42.2161 49.6268 42.1078 49.7114C41.9995 49.7961 41.9089 49.9013 41.8412 50.0209C41.7735 50.1406 41.7301 50.2724 41.7133 50.4089C41.6966 50.5454 41.7069 50.6838 41.7437 50.8163C41.8179 51.0838 41.9954 51.3109 42.2371 51.4476C42.3568 51.5153 42.4886 51.5587 42.6251 51.5754C42.7616 51.5922 42.9 51.5819 43.0325 51.5451C43.7388 51.349 44.4349 51.1175 45.1181 50.8515C45.2469 50.8021 45.3646 50.7278 45.4646 50.6327C45.5646 50.5376 45.6447 50.4238 45.7005 50.2976C45.7563 50.1715 45.7867 50.0355 45.7897 49.8976C45.7928 49.7597 45.7687 49.6226 45.7186 49.494C45.6685 49.3655 45.5935 49.2481 45.4979 49.1487C45.4023 49.0492 45.288 48.9697 45.1616 48.9145C45.0352 48.8594 44.8991 48.8298 44.7611 48.8274C44.6232 48.825 44.4862 48.8499 44.3579 48.9007V48.9006Z" fill="#FD3D57"/>
<path d="M25.4486 46.4527C25.2241 46.2893 24.9439 46.2218 24.6697 46.265C24.3954 46.3082 24.1495 46.4585 23.9861 46.683C23.8227 46.9075 23.7552 47.1877 23.7984 47.462C23.8416 47.7362 23.992 47.9821 24.2164 48.1455C24.807 48.5754 25.4257 48.98 26.0553 49.3482C26.174 49.4194 26.3057 49.4663 26.4426 49.4863C26.5796 49.5062 26.7192 49.4988 26.8533 49.4645C26.9874 49.4301 27.1134 49.3695 27.2239 49.2862C27.3344 49.2028 27.4273 49.0984 27.4972 48.9789C27.5671 48.8594 27.6126 48.7273 27.6311 48.5901C27.6496 48.4529 27.6406 48.3134 27.6048 48.1797C27.5691 48.046 27.5071 47.9207 27.4226 47.811C27.338 47.7014 27.2326 47.6097 27.1124 47.5411C26.5427 47.2078 25.9829 46.8416 25.4486 46.4527Z" fill="#FD3D57"/>
<path d="M36.5714 50.2419H36.5415C36.2638 50.238 35.996 50.3446 35.797 50.5382C35.5979 50.7318 35.4839 50.9966 35.4801 51.2742C35.4762 51.5519 35.5828 51.8197 35.7764 52.0187C35.97 52.2178 36.2348 52.3318 36.5124 52.3356C36.7202 52.3415 36.9312 52.3444 37.1406 52.3444C37.6631 52.3444 38.1903 52.3257 38.7075 52.2893C38.9844 52.2698 39.2423 52.141 39.4244 51.9314C39.6064 51.7217 39.6977 51.4483 39.6782 51.1714C39.6587 50.8944 39.5299 50.6365 39.3203 50.4545C39.1106 50.2724 38.8372 50.1811 38.5602 50.2007C37.9037 50.2465 37.2312 50.2607 36.5714 50.2419Z" fill="#FD3D57"/>
<path d="M22.7446 13.7436C22.1933 14.2216 21.6596 14.7329 21.1584 15.2634C20.9678 15.4652 20.8651 15.7346 20.873 16.0121C20.8809 16.2897 20.9987 16.5527 21.2006 16.7434C21.4024 16.9341 21.6718 17.0367 21.9493 17.0288C22.2269 17.0209 22.4899 16.9031 22.6806 16.7013C23.1343 16.2211 23.6173 15.7583 24.1163 15.3257C24.3261 15.1438 24.455 14.886 24.4748 14.6091C24.4945 14.3321 24.4034 14.0586 24.2215 13.8488C24.0397 13.6391 23.7819 13.5101 23.5049 13.4904C23.228 13.4706 22.9545 13.5617 22.7447 13.7436H22.7446Z" fill="#FD3D57"/>
<path d="M30.7225 49.1921C30.4597 49.1025 30.1721 49.121 29.9229 49.2435C29.6738 49.366 29.4834 49.5825 29.3939 49.8453C29.3043 50.1081 29.3228 50.3957 29.4453 50.6449C29.5678 50.8941 29.7842 51.0844 30.0471 51.174C30.7411 51.4101 31.4465 51.6114 32.1607 51.7771C32.2946 51.8081 32.4334 51.8124 32.569 51.7898C32.7046 51.7672 32.8344 51.7181 32.9511 51.6454C33.0677 51.5726 33.1689 51.4776 33.2488 51.3657C33.3287 51.2538 33.3858 51.1273 33.4168 50.9934C33.4478 50.8594 33.4522 50.7207 33.4296 50.5851C33.407 50.4495 33.3579 50.3196 33.2851 50.203C33.2123 50.0864 33.1173 49.9852 33.0054 49.9053C32.8935 49.8254 32.767 49.7683 32.6331 49.7372C31.9875 49.5876 31.3499 49.4057 30.7225 49.1921Z" fill="#FD3D57"/>
<path d="M41.1986 8.74886C40.4823 8.61525 39.7499 8.51606 39.0215 8.4543C38.7448 8.43087 38.4702 8.51831 38.258 8.69739C38.0458 8.87646 37.9134 9.1325 37.89 9.40918C37.8665 9.68585 37.954 9.96051 38.1331 10.1727C38.3121 10.3849 38.5682 10.5173 38.8448 10.5407C39.5039 10.5966 40.1665 10.6861 40.8142 10.8071C41.0871 10.8581 41.3691 10.7986 41.5982 10.6416C41.8272 10.4847 41.9845 10.2432 42.0355 9.97024C42.0865 9.69729 42.027 9.41527 41.87 9.18622C41.7131 8.95717 41.4716 8.79984 41.1986 8.74886Z" fill="#FD3D57"/>
<path d="M23.5312 63.8594V53.3906C23.5312 53.113 23.421 52.8467 23.2246 52.6504C23.0283 52.454 22.762 52.3438 22.4844 52.3438H19.3438V49.2031C19.3438 48.9255 19.2335 48.6592 19.0371 48.4629C18.8408 48.2665 18.5745 48.1562 18.2969 48.1562H7.82812C7.55048 48.1562 7.2842 48.2665 7.08787 48.4629C6.89155 48.6592 6.78125 48.9255 6.78125 49.2031V52.3438H3.64062C3.36298 52.3438 3.0967 52.454 2.90037 52.6504C2.70405 52.8467 2.59375 53.113 2.59375 53.3906V63.8594C2.59375 64.137 2.70405 64.4033 2.90037 64.5996C3.0967 64.796 3.36298 64.9062 3.64062 64.9062H22.4844C22.762 64.9062 23.0283 64.796 23.2246 64.5996C23.421 64.4033 23.5312 64.137 23.5312 63.8594ZM6.78125 62.8125H4.6875V54.4375H6.78125V62.8125ZM17.25 62.8125H14.1094V61.7656C14.1094 61.488 13.9991 61.2217 13.8028 61.0254C13.6064 60.829 13.3401 60.7188 13.0625 60.7188C12.7849 60.7188 12.5186 60.829 12.3222 61.0254C12.1259 61.2217 12.0156 61.488 12.0156 61.7656V62.8125H8.875V50.25H17.25V62.8125ZM21.4375 62.8125H19.3438V54.4375H21.4375V62.8125Z" fill="#FD3D57"/>
<path d="M12.0156 54.4375H14.1094C14.387 54.4375 14.6533 54.3272 14.8496 54.1309C15.046 53.9346 15.1562 53.6683 15.1562 53.3906C15.1562 53.113 15.046 52.8467 14.8496 52.6504C14.6533 52.454 14.387 52.3438 14.1094 52.3438H12.0156C11.738 52.3438 11.4717 52.454 11.2754 52.6504C11.079 52.8467 10.9688 53.113 10.9688 53.3906C10.9688 53.6683 11.079 53.9346 11.2754 54.1309C11.4717 54.3272 11.738 54.4375 12.0156 54.4375Z" fill="#FD3D57"/>
<path d="M12.0156 58.625H14.1094C14.387 58.625 14.6533 58.5147 14.8496 58.3184C15.046 58.1221 15.1562 57.8558 15.1562 57.5781C15.1562 57.3005 15.046 57.0342 14.8496 56.8379C14.6533 56.6415 14.387 56.5312 14.1094 56.5312H12.0156C11.738 56.5312 11.4717 56.6415 11.2754 56.8379C11.079 57.0342 10.9688 57.3005 10.9688 57.5781C10.9688 57.8558 11.079 58.1221 11.2754 58.3184C11.4717 58.5147 11.738 58.625 12.0156 58.625Z" fill="#FD3D57"/>
<path d="M38.2811 31.8388C38.3642 32.022 38.4983 32.1773 38.6674 32.2862C38.8364 32.3952 39.0333 32.4531 39.2344 32.4531H45.5156V35.5937C45.5156 35.8714 45.6259 36.1376 45.8223 36.334C46.0186 36.5303 46.2849 36.6406 46.5625 36.6406C46.8402 36.6406 47.1065 36.5303 47.3028 36.334C47.4991 36.1376 47.6094 35.8714 47.6094 35.5937V32.4531H49.7032C49.9808 32.4531 50.2471 32.3428 50.4434 32.1465C50.6397 31.9501 50.75 31.6839 50.75 31.4062C50.75 31.1286 50.6397 30.8623 50.4434 30.666C50.2471 30.4696 49.9808 30.3593 49.7032 30.3593H47.6094V23.0312C47.6094 22.8182 47.5444 22.6103 47.4232 22.4352C47.3019 22.26 47.1301 22.1261 46.9307 22.0512C46.7313 21.9763 46.5138 21.9639 46.3073 22.0159C46.1007 22.0678 45.9149 22.1815 45.7746 22.3418L38.4465 30.7168C38.3141 30.8682 38.228 31.0545 38.1987 31.2535C38.1694 31.4525 38.198 31.6557 38.2811 31.8388ZM45.5156 25.8175V30.3593H41.5414L45.5156 25.8175Z" fill="#FD3D57"/>
</svg>
